<?xml version="1.0" encoding="utf-8"?>
<svg width="16px" height="16px" viewBox="0 0 16 16" version="1.1" xmlns:xlink="http://www.w3.org/1999/xlink" xmlns="http://www.w3.org/2000/svg">
  <defs>
    <linearGradient gradientUnits="objectBoundingBox" x1="0.19299905" y1="0" x2="1" y2="1" id="gradient_1">
      <stop offset="25.270983%" stop-color="#B4D1F5" />
      <stop offset="52.70272%" stop-color="#FFF0D2" />
      <stop offset="83.93617%" stop-color="#D2D2FD" />
    </linearGradient>
    <path d="M13 0C14.657 0 16 1.34293 16 3L16 13C16 14.6571 14.657 16 13 16L3 16C1.34302 16 0 14.6571 0 13L0 3C0 1.34293 1.34302 0 3 0L13 0Z" id="path_1" />
    <path d="M0 7.81431L0 0L7.81431 0L7.81431 7.81431L0 7.81431Z" id="path_2" />
    <clipPath id="clip_1">
      <use xlink:href="#path_1" clip-rule="evenodd" fill-rule="evenodd" />
    </clipPath>
    <clipPath id="clip_2">
      <use xlink:href="#path_2" clip-rule="evenodd" fill-rule="evenodd" />
    </clipPath>
  </defs>
  <g id="medic-icon">
    <path d="M13 0C14.657 0 16 1.34293 16 3L16 13C16 14.6571 14.657 16 13 16L3 16C1.34302 16 0 14.6571 0 13L0 3C0 1.34293 1.34302 0 3 0L13 0Z" id="medic-icon" fill="url(#gradient_1)" stroke="none" />
    <g id="Frame" clip-path="url(#clip_1)">
      <path d="M0 7.81431L0 0L7.81431 0L7.81431 7.81431L0 7.81431Z" id="Frame" fill="none" stroke="none" transform="matrix(0.70710677 0.70710677 -0.70710677 0.70710677 7.9700284 2.53125)" />
      <path d="M2.85028 7.85312C2.78145 7.85318 2.71541 7.82581 2.66671 7.77714C2.61807 7.72844 2.5907 7.66245 2.5907 7.59358L2.59107 5.26112L0.259459 5.26143C0.190632 5.26143 0.12462 5.23412 0.0759204 5.18545C0.0272207 5.13678 -8.90302e-05 5.07079 -8.90302e-05 5.00188L0.000279309 2.89124C0.000305619 2.74799 0.116438 2.63183 0.259722 2.63183L2.59147 2.63146L2.59189 0.298765C2.59191 0.155507 2.70805 0.0394007 2.8513 0.0393481L4.96107 0.0390588C5.02993 0.0390588 5.09594 0.0663686 5.14464 0.115042C5.19331 0.163742 5.22062 0.229727 5.22062 0.298607L5.22028 2.63112L7.55179 2.6308C7.62062 2.6308 7.68663 2.65811 7.73533 2.70676C7.78403 2.75549 7.81134 2.82144 7.81134 2.8903L7.81102 5.00088C7.81099 5.14414 7.69486 5.2603 7.55161 5.2603L5.21978 5.26072L5.21941 7.59331C5.21939 7.73657 5.10325 7.85273 4.96 7.85273L2.85028 7.85312L2.85028 7.85312ZM2.85058 4.74213C2.91941 4.74213 2.98542 4.76944 3.03412 4.81812C3.08279 4.86679 3.11013 4.9328 3.11013 5.00168L3.10976 7.33414L4.70051 7.33382L4.70088 5.00121C4.70088 4.85795 4.81702 4.74179 4.9603 4.74179L7.29207 4.74137L7.29231 3.14977L4.96077 3.15014C4.89197 3.15014 4.82596 3.12278 4.77726 3.0741C4.72856 3.02546 4.70125 2.95942 4.70125 2.89059L4.70162 0.558082L3.11081 0.558292L3.11039 2.89104C3.11039 3.03432 2.99426 3.15043 2.85095 3.15048L0.519232 3.1508L0.518969 4.7425L2.85058 4.74213L2.85058 4.74213Z" id="SVGRepo_iconCarrier" fill="#5089FF" fill-opacity="0.56078434" fill-rule="evenodd" stroke="#C5D8ED" stroke-width="0" clip-path="url(#clip_2)" transform="matrix(0.70710677 0.70710677 -0.70710677 0.70710677 7.9700284 2.53125)" />
    </g>
  </g>
</svg>